<?xml version="1.0" standalone="no"?>
<!DOCTYPE svg PUBLIC "-//W3C//DTD SVG 20010904//EN"
 "http://www.w3.org/TR/2001/REC-SVG-20010904/DTD/svg10.dtd">
<svg version="1.0" xmlns="http://www.w3.org/2000/svg"
 width="374.000000pt" height="374.000000pt" viewBox="0 0 374.000000 374.000000"
 preserveAspectRatio="xMidYMid meet">
<metadata>
Created by potrace 1.14, written by Peter Selinger 2001-2017
</metadata>
<g transform="translate(0.000000,374.000000) scale(0.100000,-0.100000)"
fill="#000000" stroke="none">
<path d="M1869 3486 c-3 -3 -67 -10 -142 -15 l-136 -10 -108 -57 c-156 -83
-221 -138 -342 -290 -76 -95 -112 -160 -146 -267 -23 -71 -25 -99 -34 -369 -5
-161 -5 -302 -1 -313 7 -15 9 -11 9 20 1 22 6 56 12 75 6 20 12 136 14 265 2
225 3 232 32 310 16 45 41 101 55 125 46 77 156 208 204 243 83 60 239 132
308 143 46 6 48 6 41 -15 -9 -28 10 -27 50 3 33 25 102 49 117 40 14 -9 9 -35
-13 -65 -25 -36 -13 -37 53 -3 46 23 56 25 85 15 18 -7 65 -14 104 -17 44 -3
88 -13 112 -25 21 -11 67 -26 101 -34 136 -28 171 -63 310 -307 61 -109 68
-125 78 -205 12 -97 6 -262 -11 -290 -8 -14 -11 -5 -11 42 -1 43 -4 54 -10 40
-16 -36 -10 -216 11 -384 18 -143 21 -197 16 -391 -5 -192 -9 -236 -28 -295
-25 -82 -76 -187 -124 -255 -19 -27 -46 -77 -61 -112 -24 -59 -67 -118 -86
-118 -4 0 -3 12 2 26 16 41 12 102 -10 142 -46 86 -71 170 -65 216 7 42 6 44
-24 54 -22 8 -35 22 -47 51 -20 49 -35 54 -27 8 5 -31 2 -34 -34 -50 -71 -31
-291 -69 -363 -62 -120 12 -193 26 -234 44 -123 56 -163 64 -186 36 -12 -15
-11 -16 12 -19 19 -2 20 -23 1 -41 -10 -10 -36 -44 -58 -77 -34 -50 -49 -63
-98 -83 l-58 -23 -23 32 c-55 73 -100 175 -142 316 l-14 45 6 -45 c9 -77 63
-221 120 -322 71 -126 83 -183 55 -274 -17 -59 -18 -65 -3 -62 10 2 20 19 25
41 5 21 14 36 21 34 6 -2 37 -40 69 -85 73 -103 145 -155 292 -210 128 -47
156 -53 287 -54 87 0 104 3 174 32 131 54 155 71 282 197 68 68 127 123 133
123 5 0 9 9 9 21 0 41 32 132 73 202 47 84 78 153 109 240 18 52 23 96 29 272
5 124 15 239 24 280 31 141 35 221 19 365 -11 86 -14 171 -10 234 14 240 -49
424 -200 585 -45 47 -89 101 -98 119 -13 25 -33 41 -84 63 -37 17 -89 49 -117
72 -43 37 -58 43 -130 54 -139 22 -170 25 -176 19z m806 -1305 c-3 -47 -8
-102 -12 -121 -11 -67 -22 0 -17 100 6 109 10 124 25 115 7 -5 9 -36 4 -94z
m-516 -820 c31 -31 51 -77 56 -128 3 -27 3 -42 -1 -35 -11 22 -24 2 -24 -38 0
-40 -26 -180 -36 -189 -3 -3 -14 0 -25 7 -20 13 -20 11 -14 -32 8 -48 -2 -59
-25 -31 -17 20 -36 5 -44 -35 -6 -33 -37 -53 -45 -29 -2 7 -9 -4 -15 -26 -10
-33 -17 -41 -46 -50 -19 -5 -41 -14 -48 -18 -8 -6 -20 -3 -32 8 -17 15 -19 15
-28 -2 -14 -24 -25 -11 -38 45 -9 36 -12 41 -13 19 0 -15 -9 -44 -18 -65 -16
-36 -17 -37 -20 -10 -3 20 -11 28 -31 30 -25 3 -27 7 -27 46 0 23 -3 42 -7 42
-5 0 -8 -13 -8 -28 0 -15 -5 -33 -12 -40 -18 -18 -38 5 -38 42 0 41 -14 61
-35 52 -12 -4 -27 5 -49 29 -18 19 -38 35 -44 35 -7 0 -32 30 -55 68 -24 37
-51 73 -60 81 -9 7 -19 28 -23 46 -3 20 -13 35 -23 38 -43 11 14 118 81 153
25 13 43 14 121 4 151 -17 321 -16 432 3 55 10 105 19 110 22 26 10 67 3 84
-14z"/>
<path d="M1711 1215 c-27 -14 -17 -25 24 -25 17 0 36 -5 41 -10 8 -8 29 -6 70
4 32 9 76 18 97 21 21 3 35 10 32 15 -8 13 -239 9 -264 -5z"/>
<path d="M1570 3295 c-14 -8 -19 -14 -10 -14 8 0 26 6 40 14 14 8 19 14 10 14
-8 0 -26 -6 -40 -14z"/>
<path d="M1281 2400 c-63 -23 -79 -35 -35 -27 17 3 58 0 90 -8 32 -8 95 -14
139 -14 72 0 78 1 61 14 -13 10 -43 15 -87 15 -37 0 -80 5 -96 12 l-28 12 40
6 40 7 -35 1 c-19 1 -59 -7 -89 -18z"/>
<path d="M2050 2361 c-38 -11 -7 -19 101 -27 86 -7 91 -6 87 12 -3 17 -13 19
-83 21 -44 1 -91 -2 -105 -6z"/>
<path d="M1520 2246 c0 -4 77 -46 85 -46 16 0 0 22 -25 35 -27 14 -60 20 -60
11z"/>
<path d="M1246 2217 c-57 -32 -59 -49 -4 -41 23 3 48 13 54 20 18 22 44 16 54
-11 11 -28 45 -45 91 -45 22 0 32 6 39 24 5 13 15 26 22 29 9 3 7 10 -9 26
-19 18 -34 21 -115 21 -78 0 -99 -4 -132 -23z"/>
<path d="M2048 2229 c-16 -6 -28 -17 -28 -25 0 -9 5 -12 10 -9 22 14 70 23 75
15 7 -12 -50 -39 -97 -47 -29 -4 -38 -10 -36 -22 4 -19 46 -27 61 -12 14 14
47 14 47 1 0 -12 137 -13 144 -1 3 5 -1 11 -9 15 -8 3 -15 10 -15 15 0 16 27
20 51 6 44 -25 93 -45 101 -43 23 8 -108 80 -170 93 -37 8 -76 17 -87 19 -11
3 -32 0 -47 -5z"/>
<path d="M1530 2182 c0 -19 27 -40 58 -46 42 -7 44 17 2 39 -32 16 -60 20 -60
7z"/>
<path d="M1522 1707 c-17 -40 -15 -51 15 -78 15 -13 22 -17 16 -9 -7 9 -13 38
-15 65 -3 49 -4 49 -16 22z"/>
<path d="M2051 1724 c0 -5 36 -40 81 -79 106 -93 127 -114 149 -150 l19 -30 0
26 c0 14 -12 42 -27 61 -34 41 -171 168 -183 168 -5 0 -15 3 -24 6 -9 3 -16 2
-15 -2z"/>
<path d="M1474 1654 c-18 -14 -18 -15 4 -4 12 6 22 13 22 15 0 8 -5 6 -26 -11z"/>
<path d="M1595 1615 l-30 -13 28 -13 c27 -12 28 -15 21 -58 -11 -73 -10 -85 9
-89 13 -3 17 3 17 26 0 17 9 50 19 75 17 40 22 44 48 40 l28 -4 -28 25 c-31
29 -65 32 -112 11z"/>
<path d="M1930 1610 c0 -5 4 -10 9 -10 6 0 13 5 16 10 3 6 -1 10 -9 10 -9 0
-16 -4 -16 -10z"/>
<path d="M1295 1500 c-3 -5 -2 -10 4 -10 5 0 13 5 16 10 3 6 2 10 -4 10 -5 0
-13 -4 -16 -10z"/>
<path d="M1526 1501 c-4 -6 -3 -18 2 -27 8 -14 10 -14 15 -2 7 19 -8 44 -17
29z"/>
<path d="M1792 1477 c-29 -31 -28 -34 12 -45 31 -9 110 -2 122 11 12 12 -8 27
-30 21 -15 -3 -28 2 -40 15 -24 27 -37 26 -64 -2z"/>
<path d="M2008 1453 c7 -3 16 -2 19 1 4 3 -2 6 -13 5 -11 0 -14 -3 -6 -6z"/>
<path d="M2338 1169 c9 -23 18 -37 20 -30 4 13 -20 71 -30 71 -3 0 1 -19 10
-41z"/>
<path d="M2412 1190 c0 -14 2 -19 5 -12 2 6 2 18 0 25 -3 6 -5 1 -5 -13z"/>
<path d="M1089 844 c-43 -46 -104 -82 -336 -199 -126 -63 -268 -137 -318 -165
-91 -51 -231 -120 -363 -180 -39 -18 -72 -39 -72 -46 0 -8 2 -14 5 -14 11 0
339 162 425 210 52 29 196 104 319 167 228 115 312 168 351 223 26 37 22 39
-11 4z"/>
<path d="M1165 840 c27 -137 303 -424 544 -564 35 -20 66 -35 69 -32 2 3 -10
13 -27 23 -85 47 -254 175 -327 247 -96 96 -191 218 -234 301 -27 51 -30 55
-25 25z"/>
<path d="M2290 613 c-19 -27 -91 -105 -160 -174 -129 -129 -220 -195 -285
-206 -39 -6 -38 -23 2 -23 54 0 193 99 298 212 76 82 196 238 182 238 -2 0
-19 -21 -37 -47z"/>
<path d="M3190 501 c30 -17 62 -30 70 -31 22 0 0 15 -50 35 -74 28 -78 28 -20
-4z"/>
<path d="M3290 460 c8 -5 20 -10 25 -10 6 0 3 5 -5 10 -8 5 -19 10 -25 10 -5
0 -3 -5 5 -10z"/>
<path d="M3450 400 c34 -11 60 -11 35 0 -11 5 -29 8 -40 8 -16 0 -15 -2 5 -8z"/>
<path d="M1001 351 c-3 -48 91 -331 110 -331 5 0 3 12 -3 28 -6 15 -32 92 -59
172 -26 80 -48 139 -48 131z"/>
<path d="M3600 357 c0 -9 131 -90 136 -85 3 3 -11 15 -30 27 -20 11 -52 30
-71 42 -19 11 -35 19 -35 16z"/>
<path d="M465 239 c-38 -15 -61 -28 -50 -29 11 0 47 13 80 29 76 37 61 37 -30
0z"/>
<path d="M332 193 c-24 -8 -41 -17 -39 -19 4 -5 97 26 97 32 0 6 -11 4 -58
-13z"/>
<path d="M1920 163 c-8 -3 -28 -17 -44 -30 -22 -18 -38 -23 -60 -20 -17 3 -50
9 -74 13 -43 7 -44 6 -103 -52 -32 -32 -59 -62 -59 -65 0 -4 133 -8 296 -8
237 -1 293 1 282 11 -52 50 -202 159 -215 157 -5 0 -15 -3 -23 -6z"/>
</g>
</svg>
